<svg width="35" height="35" viewBox="0 0 35 35" fill="none" xmlns="http://www.w3.org/2000/svg">
<path d="M16.1579 24.2088C21.5474 27.3736 28.1158 26.8462 33 22.6264M16.3263 33C24.7908 33 31.6526 25.8366 31.6526 17C31.6526 8.16344 24.7908 1 16.3263 1C7.86183 1 1 8.16344 1 17C1 25.8366 7.86183 33 16.3263 33ZM21.2105 17.5275C21.7686 17.5275 22.2211 16.268 22.2211 14.7143C22.2211 13.1606 21.7686 11.9011 21.2105 11.9011C20.6524 11.9011 20.2 13.1606 20.2 14.7143C20.2 16.268 20.6524 17.5275 21.2105 17.5275ZM26.9368 17.5275C27.4949 17.5275 27.9474 16.268 27.9474 14.7143C27.9474 13.1606 27.4949 11.9011 26.9368 11.9011C26.3787 11.9011 25.9263 13.1606 25.9263 14.7143C25.9263 16.268 26.3787 17.5275 26.9368 17.5275Z" stroke="black" stroke-width="3" stroke-linecap="round"/>
</svg>
